PathFileType	4	(X/Y/Z)	C:\Users\s5001683\Documents\PhD\FASHiON\BaselineData\3. CleanedGaitData\ElaboratedData\FAS-906\Session 1\staticElaborations\StaticCalibration\Static\\StaticCalibration.trc
DataRate	CameraRate	NumFrames	NumMarkers	Units	OrigDataRate	DataStartFrame
120	120	4	90	mm	120	2
Frame#	Time	RFHD			LFHD			RBHD			LBHD			C7			T10			CLAV			STRN			RASI			LASI			RPSI			LPSI			RTH1			RTH2			RTH3			RTH4			RTH5			RTH6			RMFC			RLFC			RTB1			RTB2			RTB3			RTB4			RTB5			RTB6			RMMAL			RLMAL			RCAL			RMT1			RMT23			RMT5			LMT1			LMT23			LMT5			LCAL			LMMAL			LLMAL			LTB1			LTB2			LTB3			LTB4			LTB5			LTB6			LMFC			LLFC			LTH1			LTH2			LTH3			LTH4			LTH5			LTH6			LACR			LASH			LPSH			LUA1			LUA2			LUA3			LMEL			LLEL			LFA1			LFA3			LFA2			LWRU			LWRR			RACR			RASH			RPSH			RUA1			RUA2			RUA3			RMEL			RLEL			RFA1			RFA2			RFA3			RWRU			RWRR			LAJC			RAJC			LEJC			REJC			LHJC			RHJC			LKJC			RKJC			LSJC			RSJC			LWJC			RWJC		
		X1	Y1	Z1	X2	Y2	Z2	X3	Y3	Z3	X4	Y4	Z4	X5	Y5	Z5	X6	Y6	Z6	X7	Y7	Z7	X8	Y8	Z8	X9	Y9	Z9	X10	Y10	Z10	X11	Y11	Z11	X12	Y12	Z12	X13	Y13	Z13	X14	Y14	Z14	X15	Y15	Z15	X16	Y16	Z16	X17	Y17	Z17	X18	Y18	Z18	X19	Y19	Z19	X20	Y20	Z20	X21	Y21	Z21	X22	Y22	Z22	X23	Y23	Z23	X24	Y24	Z24	X25	Y25	Z25	X26	Y26	Z26	X27	Y27	Z27	X28	Y28	Z28	X29	Y29	Z29	X30	Y30	Z30	X31	Y31	Z31	X32	Y32	Z32	X33	Y33	Z33	X34	Y34	Z34	X35	Y35	Z35	X36	Y36	Z36	X37	Y37	Z37	X38	Y38	Z38	X39	Y39	Z39	X40	Y40	Z40	X41	Y41	Z41	X42	Y42	Z42	X43	Y43	Z43	X44	Y44	Z44	X45	Y45	Z45	X46	Y46	Z46	X47	Y47	Z47	X48	Y48	Z48	X49	Y49	Z49	X50	Y50	Z50	X51	Y51	Z51	X52	Y52	Z52	X53	Y53	Z53	X54	Y54	Z54	X55	Y55	Z55	X56	Y56	Z56	X57	Y57	Z57	X58	Y58	Z58	X59	Y59	Z59	X60	Y60	Z60	X61	Y61	Z61	X62	Y62	Z62	X63	Y63	Z63	X64	Y64	Z64	X65	Y65	Z65	X66	Y66	Z66	X67	Y67	Z67	X68	Y68	Z68	X69	Y69	Z69	X70	Y70	Z70	X71	Y71	Z71	X72	Y72	Z72	X73	Y73	Z73	X74	Y74	Z74	X75	Y75	Z75	X76	Y76	Z76	X77	Y77	Z77	X78	Y78	Z78	X79	Y79	Z79	X80	Y80	Z80	X81	Y81	Z81	X82	Y82	Z82	X83	Y83	Z83	X84	Y84	Z84	X85	Y85	Z85	X86	Y86	Z86	X87	Y87	Z87	X88	Y88	Z88	X89	Y89	Z89	X90	Y90	Z90	

367	3.050000	770.215515	1615.257813	-179.249847	776.473938	1616.717896	-285.355194	625.110535	1544.715576	-173.591660	622.030029	1546.567993	-312.497650	602.751160	1420.242676	-242.177490	604.587952	1125.361694	-247.459442	743.986633	1354.002686	-239.516525	800.553833	1148.849854	-240.916260	769.919556	941.612061	-106.701286	766.203613	947.681335	-377.955627	597.356262	971.966675	-181.190399	594.884827	983.971924	-291.986053	734.184143	719.272034	-57.669216	769.371277	651.816956	-96.413483	716.669861	591.844543	-82.651802	806.004395	727.932434	-156.712524	770.470215	672.795349	-212.772339	781.679626	596.812988	-169.854996	662.927490	448.075104	-221.037933	692.373718	451.344543	-103.848206	685.083923	333.126801	-185.313843	693.851990	269.192596	-119.082649	675.105835	202.562546	-174.815491	657.428101	350.818878	-83.802895	600.683838	287.123322	-105.416451	655.288635	221.387299	-100.527168	649.319519	107.366692	-203.612122	634.109314	87.516533	-123.063828	577.753662	67.084099	-168.901535	783.120361	48.547840	-199.659851	790.553162	57.566734	-158.551926	770.372803	47.024837	-105.649239	777.245117	55.105022	-306.611420	781.584656	57.280312	-360.171753	754.083557	38.866066	-402.310822	573.743469	63.981400	-323.460083	644.838074	98.311401	-286.790710	625.659424	94.976776	-364.273438	695.407104	371.447723	-303.699432	709.732544	305.433746	-355.220062	676.124451	241.589569	-309.774261	656.461426	315.777100	-407.484314	599.776611	254.943939	-380.139252	648.269958	186.266357	-381.536377	667.332764	436.871033	-275.703644	677.642090	451.219238	-395.118683	675.445129	736.424072	-437.869904	733.381897	677.090881	-417.207703	687.594482	608.144958	-409.031342	783.500488	810.613281	-395.685730	799.452759	742.543152	-340.466675	772.773376	672.821106	-390.546844	672.787292	1406.893311	-380.953918	753.818054	1289.812866	-392.085999	602.558350	1248.843994	-379.880371	662.124939	1295.694580	-466.685516	735.473328	1295.832886	-508.114532	744.584045	1208.381592	-528.616638	815.991333	1138.665894	-526.483582	813.862122	1173.153564	-578.308228	893.538330	1117.148804	-645.024536	936.305176	1151.287109	-616.283569	897.935669	1155.386353	-628.714783	981.299011	1076.819946	-692.284058	1017.587219	1079.899048	-641.267151	643.612366	1396.199097	-98.790924	737.688843	1290.015869	-99.271721	600.518982	1242.735840	-94.275742	637.336731	1284.515625	-21.726885	704.773010	1293.134521	29.734665	714.180115	1211.498657	60.279793	777.988708	1124.062378	61.301029	786.338989	1173.184814	115.103592	890.121765	1098.957642	180.242599	892.767212	1143.416626	157.289673	930.050293	1136.550537	137.298813	960.829224	1067.627319	207.579025	1006.955933	1087.327148	161.168228	635.248749	96.644089	-325.532074	641.714417	97.441612	-163.337975	814.926727	1155.909729	-552.395905	782.163849	1148.623596	88.202311	698.122870	866.121372	-340.005408	700.775330	861.789090	-146.382565	672.487427	444.045135	-335.411163	677.650604	449.709824	-162.443069	678.188202	1269.328430	-385.983185	669.103912	1266.375854	-96.773731	999.443115	1078.359497	-666.775604	983.892578	1077.477234	184.373627	
368	3.058333	770.599243	1615.332031	-179.222565	776.414795	1616.712769	-285.370941	625.096191	1544.735229	-173.559753	621.981201	1546.566406	-312.506561	602.680664	1420.247437	-242.070618	604.613708	1125.305298	-247.457535	743.941040	1354.006592	-239.502396	800.608215	1148.869385	-240.871170	769.957275	941.608154	-106.661674	766.225891	947.684631	-377.905212	597.410217	971.951965	-181.167130	594.884888	983.978882	-291.971558	734.173096	719.288208	-57.673573	769.418274	651.831665	-96.397614	716.715393	591.844543	-82.646988	806.054321	727.928650	-156.693497	770.468445	672.863403	-212.735626	781.677734	596.811584	-169.838379	662.955566	448.068329	-221.025986	692.397583	451.360077	-103.823563	685.149353	333.123047	-185.271988	693.910156	269.188995	-119.062843	675.134827	202.570419	-174.861649	657.423645	350.835083	-83.812874	600.707825	287.160339	-105.389214	655.334900	221.394760	-100.510323	649.315613	107.382103	-203.634399	634.111572	87.557236	-122.999443	577.669983	67.082108	-168.903091	783.142456	48.582424	-199.628433	790.547180	57.549294	-158.548294	770.399109	47.057549	-105.672897	777.294006	55.068691	-306.610199	781.588440	57.263119	-360.173584	754.096802	38.854679	-402.378082	573.744690	63.999489	-323.459656	644.782715	98.275841	-286.799316	625.656250	94.983398	-364.297852	695.401001	371.471283	-303.693512	709.739929	305.429413	-355.222778	676.121582	241.575989	-309.778137	656.474792	315.806030	-407.486023	599.782043	254.920288	-380.146973	648.288940	186.284195	-381.530640	667.323975	436.876953	-275.702881	677.690613	451.263550	-395.105255	675.492981	736.417297	-437.859406	733.446777	677.132629	-417.215668	687.633484	608.142700	-409.100128	783.526917	810.618408	-395.656372	799.438171	742.512878	-340.404541	772.821045	672.827271	-390.508698	672.724121	1406.907104	-380.917450	753.815552	1289.834717	-392.048920	602.556152	1248.836304	-379.847260	662.054688	1295.539307	-466.877258	735.168579	1296.303833	-508.282013	744.569702	1208.408325	-528.640808	815.990356	1138.687988	-526.460754	813.863770	1173.207397	-578.326477	893.549683	1117.220093	-645.034973	936.315552	1151.348389	-616.297302	897.907715	1155.453735	-628.702148	981.255005	1076.912964	-692.288635	1017.587952	1079.976318	-641.296448	643.593994	1396.210327	-98.751724	737.681763	1290.015991	-99.274200	600.462463	1242.837891	-94.054230	637.342163	1284.487183	-21.714499	704.777161	1293.130615	29.733847	714.169128	1211.494019	60.317020	778.002625	1124.046753	61.328903	786.385437	1173.249023	115.151077	890.138306	1098.981323	180.225677	892.796326	1143.412964	157.291351	930.062561	1136.549561	137.274292	960.918457	1067.552856	207.503006	1007.014587	1087.319336	161.204971	635.219482	96.629620	-325.548584	641.713593	97.469669	-163.316921	814.927063	1155.947693	-552.393616	782.194031	1148.647888	88.239990	698.149734	866.124962	-339.955093	700.813225	861.787527	-146.339401	672.507294	444.070251	-335.404068	677.676575	449.714203	-162.424774	678.185852	1269.335510	-385.948090	669.072113	1266.426941	-96.664215	999.421478	1078.444641	-666.792542	983.966522	1077.436096	184.353989	
369	3.066667	770.203125	1615.283569	-179.295181	776.376160	1616.717773	-285.313904	625.084961	1544.734497	-173.533310	621.955872	1546.502197	-312.489197	602.691345	1420.220215	-242.090103	604.576355	1125.329224	-247.435684	743.933228	1354.012207	-239.492294	800.624023	1148.909790	-240.849899	769.997375	941.635620	-106.639023	766.306213	947.676086	-377.881317	597.423523	971.928711	-181.202469	594.949463	983.979370	-291.993774	734.279053	719.249023	-57.690720	769.488403	651.846375	-96.409866	716.736755	591.850464	-82.639732	806.063538	727.955688	-156.667236	770.496277	672.856201	-212.749863	781.732422	596.828857	-169.849899	663.004883	448.061432	-221.049469	692.436462	451.372986	-103.836212	685.151367	333.123016	-185.271194	693.907227	269.174591	-119.062874	675.033142	202.531937	-174.727768	657.412781	350.848358	-83.829247	600.726990	287.190063	-105.403130	655.372314	221.383057	-100.516739	649.332336	107.388145	-203.632645	634.105957	87.562195	-122.956924	577.677734	67.135292	-168.942245	783.128723	48.567047	-199.659485	790.561646	57.520473	-158.569916	770.378418	47.063034	-105.623810	777.246338	55.090553	-306.608337	781.584839	57.262531	-360.167603	754.084473	38.847713	-402.302063	573.734497	63.964287	-323.420685	644.754211	98.311333	-286.788025	625.651489	95.004128	-364.281921	695.400146	371.473694	-303.693481	709.795715	305.465485	-355.198639	676.107666	241.562622	-309.754028	656.482666	315.791809	-407.476776	599.806274	254.971268	-380.092194	648.352112	186.292953	-381.543182	667.408630	436.879120	-275.551575	677.680237	451.241791	-395.094604	675.509521	736.405579	-437.823761	733.569275	677.389221	-417.417328	687.668213	608.153259	-409.018311	783.575562	810.641235	-395.650146	799.527649	742.525879	-340.378601	772.846741	672.847168	-390.484192	672.689331	1406.891724	-380.870636	753.823181	1289.833252	-392.033905	602.545227	1248.814819	-379.820251	662.004272	1295.611572	-466.891815	735.155518	1296.352417	-508.280975	744.533203	1208.430542	-528.611572	815.979675	1138.765259	-526.501831	813.816406	1173.220459	-578.302185	893.546509	1117.259155	-645.041260	936.318054	1151.431396	-616.315430	897.907654	1155.498535	-628.714233	981.258606	1076.972534	-692.287842	1017.593079	1080.091919	-641.277039	643.601685	1396.211914	-98.735413	737.673401	1290.060791	-99.235474	600.493713	1242.762817	-94.178635	637.375671	1284.428589	-21.809200	704.757813	1293.145508	29.773993	714.176758	1211.517578	60.312252	777.999939	1124.048828	61.327419	786.382385	1173.237061	115.154808	890.170471	1098.990723	180.263870	892.820801	1143.432495	157.310867	930.088013	1136.553711	137.282532	960.910217	1067.578613	207.549576	1006.986389	1087.333252	161.212631	635.202850	96.657730	-325.534973	641.719147	97.475170	-163.294785	814.898041	1155.992859	-552.402008	782.191162	1148.642944	88.241114	698.232743	866.112931	-339.931219	700.867525	861.801197	-146.316274	672.544434	444.060455	-335.323090	677.720673	449.717209	-162.442841	678.184204	1269.324036	-385.927078	669.083557	1266.411804	-96.707054	999.425842	1078.532227	-666.782440	983.948303	1077.455933	184.381104	
370	3.075000	770.524353	1615.356567	-179.279510	776.341797	1616.681152	-285.373749	625.030029	1544.717651	-173.535217	621.897522	1546.532471	-312.448730	602.615295	1420.205078	-242.053955	604.628174	1125.350098	-247.376434	743.906311	1354.028320	-239.474274	800.638184	1148.977539	-240.852219	770.051819	941.633850	-106.630196	766.322083	947.701538	-377.884613	597.441101	971.956421	-181.032089	594.941650	983.950745	-291.949646	734.308350	719.273071	-57.655266	769.490845	651.849854	-96.419525	716.781860	591.844666	-82.643623	806.129578	727.949341	-156.649841	770.474243	672.856995	-212.757141	781.757263	596.831604	-169.894302	663.000061	448.065094	-221.017502	692.500366	451.375000	-103.815224	685.177185	333.134094	-185.264404	693.926941	269.184418	-119.073364	675.204590	202.585953	-174.832108	657.447205	350.850708	-83.835327	600.764648	287.223083	-105.386192	655.397522	221.389038	-100.495605	649.328796	107.395439	-203.624008	634.098511	87.569801	-122.983124	577.672119	67.137451	-168.902481	783.132751	48.541851	-199.652359	790.554321	57.513893	-158.567780	770.397705	47.033077	-105.676071	777.283691	55.093376	-306.604645	781.588562	57.256016	-360.180878	754.086304	38.850773	-402.318848	573.745117	63.994465	-323.456543	644.785217	98.291550	-286.838043	625.651306	95.011147	-364.280151	695.441772	371.485962	-303.628937	709.825928	305.499725	-355.209534	676.133423	241.593948	-309.783691	656.529419	315.814056	-407.454620	599.824829	254.989441	-380.134338	648.368225	186.312317	-381.560181	667.427612	436.917572	-275.563354	677.689575	451.235352	-395.023193	675.555420	736.429260	-437.809326	733.636780	677.388733	-417.411346	687.707581	608.136230	-408.975647	783.646179	810.634705	-395.584534	799.605896	742.522095	-340.381226	772.877502	672.842163	-390.467224	672.623291	1406.917480	-380.836151	753.781616	1289.838867	-392.056732	602.518005	1248.776611	-379.740906	662.058594	1295.743042	-466.706787	735.405945	1295.904419	-508.071930	744.521973	1208.462036	-528.621094	815.959351	1138.789185	-526.479858	813.825928	1173.494507	-578.519958	893.532715	1117.331787	-645.047852	936.323730	1151.505737	-616.342224	897.864258	1155.565918	-628.704529	981.274780	1077.053711	-692.339233	1017.599182	1080.130493	-641.296753	643.601196	1396.189331	-98.705696	737.654236	1290.066772	-99.240646	600.477112	1242.797852	-94.072777	637.317200	1284.476685	-21.640848	704.750793	1293.150879	29.774210	714.179810	1211.523682	60.330994	778.042053	1124.046753	61.346931	786.378479	1173.253662	115.159134	890.165771	1099.011108	180.270157	892.820984	1143.447754	157.312485	930.086060	1136.577393	137.314880	960.929321	1067.639404	207.567993	1007.011780	1087.354126	161.208969	635.218262	96.651348	-325.559097	641.713654	97.482620	-163.303566	814.892639	1156.141846	-552.499908	782.210266	1148.650208	88.253033	698.253354	866.125825	-339.930911	700.915660	861.794676	-146.308025	672.558594	444.076462	-335.293274	677.750214	449.720047	-162.416363	678.149811	1269.307739	-385.898819	669.065674	1266.432312	-96.656712	999.436981	1078.592102	-666.817993	983.970551	1077.496765	184.388481	
